<mxfile host="65bd71144e">
    <diagram id="rJ_TjAOxl6wIv-Mc5MUA" name="第 1 页">
        <mxGraphModel dx="722" dy="360" grid="1" gridSize="10" guides="1" tooltips="1" connect="1" arrows="1" fold="1" page="1" pageScale="1" pageWidth="827" pageHeight="1169" math="0" shadow="0">
            <root>
                <mxCell id="0"/>
                <mxCell id="1" parent="0"/>
                <mxCell id="17" value="&lt;blockquote style=&quot;margin: 0 0 0 40px ; border: none ; padding: 0px&quot;&gt;&lt;pre style=&quot;font-size: 13px&quot;&gt;&lt;font style=&quot;font-size: 15px&quot; face=&quot;Verdana&quot;&gt;&lt;b&gt;&lt;font style=&quot;font-size: 15px&quot;&gt;JVM内存&lt;br&gt;&lt;/font&gt;继承的内存布局&lt;/b&gt;&lt;/font&gt;&lt;/pre&gt;&lt;/blockquote&gt;" style="rounded=0;whiteSpace=wrap;html=1;fillColor=#6d8764;strokeColor=#3A5431;fontColor=#ffffff;align=center;verticalAlign=top;labelPosition=center;verticalLabelPosition=middle;horizontal=1;" parent="1" vertex="1">
                    <mxGeometry x="530.42" y="60" width="869.58" height="580" as="geometry"/>
                </mxCell>
                <mxCell id="18" value="&lt;h2&gt;栈&lt;/h2&gt;" style="rounded=0;whiteSpace=wrap;html=1;fillColor=#647687;strokeColor=#0F0F0F;fontColor=#ffffff;align=center;labelPosition=center;verticalLabelPosition=middle;verticalAlign=top;" parent="1" vertex="1">
                    <mxGeometry x="560" y="120" width="220" height="500" as="geometry"/>
                </mxCell>
                <mxCell id="19" value="main栈 &lt;font color=&quot;#000000&quot;&gt;(1)&lt;/font&gt;" style="rounded=0;whiteSpace=wrap;html=1;fontFamily=Verdana;fontSize=15;strokeColor=#543B27;fillColor=#B266FF;verticalAlign=top;align=left;fontColor=#ffffff;" parent="1" vertex="1">
                    <mxGeometry x="575" y="470" width="195" height="130" as="geometry"/>
                </mxCell>
                <mxCell id="20" value="Son son = new Son();&lt;br&gt;son&amp;nbsp; -&amp;gt;&amp;nbsp; [0x11]" style="rounded=0;whiteSpace=wrap;html=1;fontFamily=Verdana;fontSize=15;strokeColor=#543B27;fillColor=#B266FF;align=left;" parent="1" vertex="1">
                    <mxGeometry x="580" y="521.5" width="180" height="48.5" as="geometry"/>
                </mxCell>
                <mxCell id="21" value="&lt;h2&gt;堆&lt;/h2&gt;" style="rounded=0;whiteSpace=wrap;html=1;fillColor=#647687;strokeColor=#0F0F0F;fontColor=#ffffff;align=center;labelPosition=center;verticalLabelPosition=middle;verticalAlign=top;" parent="1" vertex="1">
                    <mxGeometry x="790" y="120" width="590" height="270" as="geometry"/>
                </mxCell>
                <mxCell id="22" value="对象 son [0x11]" style="rounded=0;whiteSpace=wrap;html=1;fontFamily=Verdana;fontSize=15;strokeColor=#006EAF;fillColor=#1ba1e2;verticalAlign=top;align=left;fontColor=#ffffff;" parent="1" vertex="1">
                    <mxGeometry x="810" y="150" width="170" height="230" as="geometry"/>
                </mxCell>
                <mxCell id="26" value="&lt;h2 style=&quot;font-size: 18px;&quot;&gt;方法区&lt;/h2&gt;" style="rounded=0;whiteSpace=wrap;html=1;fillColor=#647687;strokeColor=#0F0F0F;fontColor=#ffffff;align=left;labelPosition=center;verticalLabelPosition=middle;verticalAlign=top;fontSize=18;" parent="1" vertex="1">
                    <mxGeometry x="790" y="400" width="590" height="220" as="geometry"/>
                </mxCell>
                <mxCell id="32" value="&lt;div style=&quot;color: rgb(212, 212, 212); background-color: rgb(30, 30, 30); font-family: &amp;quot;cn regular&amp;quot;, consolas, &amp;quot;courier new&amp;quot;, monospace, consolas, &amp;quot;courier new&amp;quot;, monospace; font-weight: normal; font-size: 18px; line-height: 24px;&quot;&gt;&lt;div&gt;&lt;span style=&quot;color: #569cd6&quot;&gt;public&lt;/span&gt;&lt;span style=&quot;color: #d4d4d4&quot;&gt; &lt;/span&gt;&lt;span style=&quot;color: #569cd6&quot;&gt;class&lt;/span&gt;&lt;span style=&quot;color: #d4d4d4&quot;&gt; ExtendsTheory {&lt;/span&gt;&lt;/div&gt;&lt;div&gt;&lt;span style=&quot;color: #d4d4d4&quot;&gt;&amp;nbsp; &amp;nbsp; &lt;/span&gt;&lt;span style=&quot;color: #569cd6&quot;&gt;public&lt;/span&gt;&lt;span style=&quot;color: #d4d4d4&quot;&gt; &lt;/span&gt;&lt;span style=&quot;color: #569cd6&quot;&gt;static&lt;/span&gt;&lt;span style=&quot;color: #d4d4d4&quot;&gt; &lt;/span&gt;&lt;span style=&quot;color: #569cd6&quot;&gt;void&lt;/span&gt;&lt;span style=&quot;color: #d4d4d4&quot;&gt; main(&lt;/span&gt;&lt;span style=&quot;color: #569cd6&quot;&gt;String&lt;/span&gt;&lt;span style=&quot;color: #d4d4d4&quot;&gt;[] args) {&lt;/span&gt;&lt;/div&gt;&lt;div&gt;&lt;span style=&quot;color: #d4d4d4&quot;&gt;&amp;nbsp; &amp;nbsp; &amp;nbsp; &amp;nbsp; &lt;/span&gt;&lt;span style=&quot;color: #569cd6&quot;&gt;Son&lt;/span&gt;&lt;span style=&quot;color: #d4d4d4&quot;&gt; son = &lt;/span&gt;&lt;span style=&quot;color: #569cd6&quot;&gt;new&lt;/span&gt;&lt;span style=&quot;color: #d4d4d4&quot;&gt; Son(); &lt;/span&gt;&lt;span style=&quot;color: #6a9955&quot;&gt;// 内存的布局&lt;/span&gt;&lt;/div&gt;&lt;div&gt;&lt;span style=&quot;color: #d4d4d4&quot;&gt;&amp;nbsp; &amp;nbsp; }&lt;/span&gt;&lt;/div&gt;&lt;div&gt;&lt;span style=&quot;color: #d4d4d4&quot;&gt;}&lt;/span&gt;&lt;/div&gt;&lt;div&gt;&lt;span style=&quot;color: #569cd6&quot;&gt;class&lt;/span&gt;&lt;span style=&quot;color: #d4d4d4&quot;&gt; GrandPa { &lt;/span&gt;&lt;span style=&quot;color: #6a9955&quot;&gt;// 爷类&lt;/span&gt;&lt;/div&gt;&lt;div&gt;&lt;span style=&quot;color: #d4d4d4&quot;&gt;&amp;nbsp; &amp;nbsp; &lt;/span&gt;&lt;span style=&quot;color: #569cd6&quot;&gt;String&lt;/span&gt;&lt;span style=&quot;color: #d4d4d4&quot;&gt; name = &lt;/span&gt;&lt;span style=&quot;color: #ce9178&quot;&gt;&quot;大头爷爷&quot;&lt;/span&gt;&lt;span style=&quot;color: #d4d4d4&quot;&gt;;&lt;/span&gt;&lt;/div&gt;&lt;div&gt;&lt;span style=&quot;color: #d4d4d4&quot;&gt;&amp;nbsp; &amp;nbsp; &lt;/span&gt;&lt;span style=&quot;color: #569cd6&quot;&gt;String&lt;/span&gt;&lt;span style=&quot;color: #d4d4d4&quot;&gt; hobby = &lt;/span&gt;&lt;span style=&quot;color: #ce9178&quot;&gt;&quot;旅游&quot;&lt;/span&gt;&lt;span style=&quot;color: #d4d4d4&quot;&gt;;&lt;/span&gt;&lt;/div&gt;&lt;div&gt;&lt;span style=&quot;color: #d4d4d4&quot;&gt;}&lt;/span&gt;&lt;/div&gt;&lt;div&gt;&lt;span style=&quot;color: #569cd6&quot;&gt;class&lt;/span&gt;&lt;span style=&quot;color: #d4d4d4&quot;&gt; Father &lt;/span&gt;&lt;span style=&quot;color: #569cd6&quot;&gt;extends&lt;/span&gt;&lt;span style=&quot;color: #d4d4d4&quot;&gt; GrandPa { &lt;/span&gt;&lt;span style=&quot;color: #6a9955&quot;&gt;// 父类&lt;/span&gt;&lt;/div&gt;&lt;div&gt;&lt;span style=&quot;color: #d4d4d4&quot;&gt;&amp;nbsp; &amp;nbsp; &lt;/span&gt;&lt;span style=&quot;color: #569cd6&quot;&gt;String&lt;/span&gt;&lt;span style=&quot;color: #d4d4d4&quot;&gt; name = &lt;/span&gt;&lt;span style=&quot;color: #ce9178&quot;&gt;&quot;大头爸爸&quot;&lt;/span&gt;&lt;span style=&quot;color: #d4d4d4&quot;&gt;;&lt;/span&gt;&lt;/div&gt;&lt;div&gt;&lt;span style=&quot;color: #d4d4d4&quot;&gt;&amp;nbsp; &amp;nbsp; &lt;/span&gt;&lt;span style=&quot;color: #569cd6&quot;&gt;int&lt;/span&gt;&lt;span style=&quot;color: #d4d4d4&quot;&gt; age = &lt;/span&gt;&lt;span style=&quot;color: #b5cea8&quot;&gt;39&lt;/span&gt;&lt;span style=&quot;color: #d4d4d4&quot;&gt;;&lt;/span&gt;&lt;/div&gt;&lt;div&gt;&lt;span style=&quot;color: #d4d4d4&quot;&gt;}&lt;/span&gt;&lt;/div&gt;&lt;div&gt;&lt;span style=&quot;color: #569cd6&quot;&gt;class&lt;/span&gt;&lt;span style=&quot;color: #d4d4d4&quot;&gt; Son &lt;/span&gt;&lt;span style=&quot;color: #569cd6&quot;&gt;extends&lt;/span&gt;&lt;span style=&quot;color: #d4d4d4&quot;&gt; Father { &lt;/span&gt;&lt;span style=&quot;color: #6a9955&quot;&gt;// 子类&lt;/span&gt;&lt;/div&gt;&lt;div&gt;&lt;span style=&quot;color: #d4d4d4&quot;&gt;&amp;nbsp; &amp;nbsp; &lt;/span&gt;&lt;span style=&quot;color: #569cd6&quot;&gt;String&lt;/span&gt;&lt;span style=&quot;color: #d4d4d4&quot;&gt; name = &lt;/span&gt;&lt;span style=&quot;color: #ce9178&quot;&gt;&quot;大头儿子&quot;&lt;/span&gt;&lt;span style=&quot;color: #d4d4d4&quot;&gt;;&lt;/span&gt;&lt;/div&gt;&lt;div&gt;&lt;span style=&quot;color: #d4d4d4&quot;&gt;}&lt;/span&gt;&lt;/div&gt;&lt;/div&gt;" style="text;whiteSpace=wrap;html=1;" parent="1" vertex="1">
                    <mxGeometry x="80" y="160" width="440" height="400" as="geometry"/>
                </mxCell>
                <mxCell id="34" value="常量池" style="rounded=0;whiteSpace=wrap;html=1;fontFamily=Verdana;fontSize=15;strokeColor=#2D7600;fillColor=#60a917;verticalAlign=top;align=center;fontColor=#ffffff;" parent="1" vertex="1">
                    <mxGeometry x="800" y="450" width="170" height="160" as="geometry"/>
                </mxCell>
                <mxCell id="36" value="大头爷爷 : 0x22" style="rounded=0;whiteSpace=wrap;html=1;fontFamily=Verdana;fontSize=15;strokeColor=#543B27;fillColor=#B266FF;align=left;" parent="1" vertex="1">
                    <mxGeometry x="810" y="480" width="145" height="27" as="geometry"/>
                </mxCell>
                <mxCell id="37" value="旅游 :&amp;nbsp; &amp;nbsp; &amp;nbsp; &amp;nbsp;0x33" style="rounded=0;whiteSpace=wrap;html=1;fontFamily=Verdana;fontSize=15;strokeColor=#543B27;fillColor=#B266FF;align=left;" parent="1" vertex="1">
                    <mxGeometry x="810" y="510" width="145" height="27" as="geometry"/>
                </mxCell>
                <mxCell id="38" value="大头爸爸 : 0x44" style="rounded=0;whiteSpace=wrap;html=1;fontFamily=Verdana;fontSize=15;strokeColor=#543B27;fillColor=#B266FF;align=left;" parent="1" vertex="1">
                    <mxGeometry x="810" y="540" width="145" height="27" as="geometry"/>
                </mxCell>
                <mxCell id="39" value="大头儿子 : 0x55" style="rounded=0;whiteSpace=wrap;html=1;fontFamily=Verdana;fontSize=15;strokeColor=#543B27;fillColor=#B266FF;align=left;" parent="1" vertex="1">
                    <mxGeometry x="810" y="571" width="145" height="27" as="geometry"/>
                </mxCell>
                <mxCell id="40" value="Object" style="rounded=0;whiteSpace=wrap;html=1;fontFamily=Verdana;fontSize=15;strokeColor=#001DBC;fillColor=#0050ef;verticalAlign=top;align=center;fontColor=#ffffff;" parent="1" vertex="1">
                    <mxGeometry x="990" y="450" width="80" height="160" as="geometry"/>
                </mxCell>
                <mxCell id="47" style="edgeStyle=orthogonalEdgeStyle;curved=1;html=1;exitX=0;exitY=0.5;exitDx=0;exitDy=0;entryX=0.5;entryY=0;entryDx=0;entryDy=0;strokeWidth=3;" parent="1" source="41" target="40" edge="1">
                    <mxGeometry relative="1" as="geometry">
                        <Array as="points">
                            <mxPoint x="1080" y="530"/>
                            <mxPoint x="1080" y="410"/>
                            <mxPoint x="1030" y="410"/>
                        </Array>
                    </mxGeometry>
                </mxCell>
                <mxCell id="41" value="GrandPa" style="rounded=0;whiteSpace=wrap;html=1;fontFamily=Verdana;fontSize=15;strokeColor=#001DBC;fillColor=#0050ef;verticalAlign=top;align=center;fontColor=#ffffff;" parent="1" vertex="1">
                    <mxGeometry x="1090" y="450" width="80" height="160" as="geometry"/>
                </mxCell>
                <mxCell id="46" style="edgeStyle=orthogonalEdgeStyle;curved=1;html=1;exitX=0;exitY=0.5;exitDx=0;exitDy=0;entryX=0.5;entryY=0;entryDx=0;entryDy=0;strokeWidth=3;" parent="1" source="42" target="41" edge="1">
                    <mxGeometry relative="1" as="geometry">
                        <Array as="points">
                            <mxPoint x="1180" y="530"/>
                            <mxPoint x="1180" y="410"/>
                            <mxPoint x="1130" y="410"/>
                        </Array>
                    </mxGeometry>
                </mxCell>
                <mxCell id="42" value="Father" style="rounded=0;whiteSpace=wrap;html=1;fontFamily=Verdana;fontSize=15;strokeColor=#001DBC;fillColor=#0050ef;verticalAlign=top;align=center;fontColor=#ffffff;" parent="1" vertex="1">
                    <mxGeometry x="1190" y="450" width="80" height="160" as="geometry"/>
                </mxCell>
                <mxCell id="45" style="edgeStyle=orthogonalEdgeStyle;html=1;exitX=0;exitY=0.5;exitDx=0;exitDy=0;entryX=0.42;entryY=-0.011;entryDx=0;entryDy=0;entryPerimeter=0;curved=1;strokeWidth=3;" parent="1" source="44" target="42" edge="1">
                    <mxGeometry relative="1" as="geometry">
                        <Array as="points">
                            <mxPoint x="1280" y="530"/>
                            <mxPoint x="1280" y="410"/>
                            <mxPoint x="1224" y="410"/>
                        </Array>
                    </mxGeometry>
                </mxCell>
                <mxCell id="44" value="Son" style="rounded=0;whiteSpace=wrap;html=1;fontFamily=Verdana;fontSize=15;strokeColor=#001DBC;fillColor=#0050ef;verticalAlign=top;align=center;fontColor=#ffffff;" parent="1" vertex="1">
                    <mxGeometry x="1290" y="450" width="80" height="160" as="geometry"/>
                </mxCell>
                <mxCell id="48" value="name : 0x22" style="rounded=0;whiteSpace=wrap;html=1;fontFamily=Verdana;fontSize=15;strokeColor=#BD7000;fillColor=#f0a30a;align=left;fontColor=#FFFFFF;" parent="1" vertex="1">
                    <mxGeometry x="822.5" y="190" width="145" height="27" as="geometry"/>
                </mxCell>
                <mxCell id="49" value="hobby : 0x33" style="rounded=0;whiteSpace=wrap;html=1;fontFamily=Verdana;fontSize=15;strokeColor=#BD7000;fillColor=#f0a30a;align=left;fontColor=#FFFFFF;" parent="1" vertex="1">
                    <mxGeometry x="822.5" y="220" width="145" height="27" as="geometry"/>
                </mxCell>
                <mxCell id="56" style="edgeStyle=orthogonalEdgeStyle;curved=1;html=1;entryX=0;entryY=0.5;entryDx=0;entryDy=0;fontSize=18;fontColor=#FFFFFF;strokeWidth=3;fillColor=#6a00ff;strokeColor=#3700CC;" parent="1" source="50" target="38" edge="1">
                    <mxGeometry relative="1" as="geometry">
                        <Array as="points">
                            <mxPoint x="790" y="274"/>
                            <mxPoint x="790" y="554"/>
                        </Array>
                    </mxGeometry>
                </mxCell>
                <mxCell id="50" value="name :&amp;nbsp; 0x44" style="rounded=0;whiteSpace=wrap;html=1;fontFamily=Verdana;fontSize=15;strokeColor=#3700CC;fillColor=#6a00ff;align=left;fontColor=#ffffff;" parent="1" vertex="1">
                    <mxGeometry x="822.5" y="260" width="145" height="27" as="geometry"/>
                </mxCell>
                <mxCell id="51" value="age :&amp;nbsp; &amp;nbsp; &amp;nbsp;39" style="rounded=0;whiteSpace=wrap;html=1;fontFamily=Verdana;fontSize=15;strokeColor=#3700CC;fillColor=#6a00ff;align=left;fontColor=#ffffff;" parent="1" vertex="1">
                    <mxGeometry x="822.5" y="290" width="145" height="27" as="geometry"/>
                </mxCell>
                <mxCell id="57" style="edgeStyle=orthogonalEdgeStyle;curved=1;html=1;entryX=1;entryY=0.5;entryDx=0;entryDy=0;fontSize=18;fontColor=#FF0008;strokeWidth=3;strokeColor=#A50040;fillColor=#d80073;" parent="1" source="52" target="39" edge="1">
                    <mxGeometry relative="1" as="geometry">
                        <Array as="points">
                            <mxPoint x="990" y="344"/>
                            <mxPoint x="990" y="585"/>
                        </Array>
                    </mxGeometry>
                </mxCell>
                <mxCell id="52" value="name :&amp;nbsp; 0x55" style="rounded=0;whiteSpace=wrap;html=1;fontFamily=Verdana;fontSize=15;strokeColor=#A50040;fillColor=#d80073;align=left;fontColor=#ffffff;" parent="1" vertex="1">
                    <mxGeometry x="822.5" y="330" width="145" height="27" as="geometry"/>
                </mxCell>
                <mxCell id="53" style="edgeStyle=orthogonalEdgeStyle;curved=1;html=1;entryX=0;entryY=0.043;entryDx=0;entryDy=0;entryPerimeter=0;fontSize=18;fontColor=#FFFFFF;strokeWidth=3;exitX=1;exitY=0.5;exitDx=0;exitDy=0;fillColor=#6a00ff;strokeColor=#463655;" parent="1" source="20" target="22" edge="1">
                    <mxGeometry relative="1" as="geometry">
                        <Array as="points">
                            <mxPoint x="750" y="546"/>
                            <mxPoint x="750" y="160"/>
                        </Array>
                    </mxGeometry>
                </mxCell>
                <mxCell id="54" style="edgeStyle=orthogonalEdgeStyle;curved=1;html=1;exitX=0;exitY=0.5;exitDx=0;exitDy=0;entryX=0;entryY=0.5;entryDx=0;entryDy=0;fontSize=18;fontColor=#FFFFFF;strokeWidth=3;fillColor=#f0a30a;strokeColor=#BD7000;" parent="1" source="48" target="36" edge="1">
                    <mxGeometry relative="1" as="geometry">
                        <Array as="points">
                            <mxPoint x="770" y="204"/>
                            <mxPoint x="770" y="494"/>
                        </Array>
                    </mxGeometry>
                </mxCell>
                <mxCell id="55" style="edgeStyle=orthogonalEdgeStyle;curved=1;html=1;entryX=1;entryY=0.5;entryDx=0;entryDy=0;fontSize=18;fontColor=#FFFFFF;strokeWidth=3;fillColor=#f0a30a;strokeColor=#BD7000;" parent="1" source="49" target="37" edge="1">
                    <mxGeometry relative="1" as="geometry">
                        <Array as="points">
                            <mxPoint x="1000" y="234"/>
                            <mxPoint x="1000" y="524"/>
                        </Array>
                    </mxGeometry>
                </mxCell>
                <mxCell id="58" value="属性信息" style="rounded=0;whiteSpace=wrap;html=1;fontFamily=Verdana;fontSize=15;strokeColor=#314354;fillColor=#647687;align=left;fontColor=#ffffff;" vertex="1" parent="1">
                    <mxGeometry x="1295" y="483" width="70" height="27" as="geometry"/>
                </mxCell>
                <mxCell id="59" value="方法信息" style="rounded=0;whiteSpace=wrap;html=1;fontFamily=Verdana;fontSize=15;strokeColor=#314354;fillColor=#647687;align=left;fontColor=#ffffff;" vertex="1" parent="1">
                    <mxGeometry x="1295" y="516.5" width="70" height="27" as="geometry"/>
                </mxCell>
                <mxCell id="60" value="属性信息" style="rounded=0;whiteSpace=wrap;html=1;fontFamily=Verdana;fontSize=15;strokeColor=#314354;fillColor=#647687;align=left;fontColor=#ffffff;" vertex="1" parent="1">
                    <mxGeometry x="1195" y="483" width="70" height="27" as="geometry"/>
                </mxCell>
                <mxCell id="61" value="方法信息" style="rounded=0;whiteSpace=wrap;html=1;fontFamily=Verdana;fontSize=15;strokeColor=#314354;fillColor=#647687;align=left;fontColor=#ffffff;" vertex="1" parent="1">
                    <mxGeometry x="1195" y="516.5" width="70" height="27" as="geometry"/>
                </mxCell>
                <mxCell id="62" value="属性信息" style="rounded=0;whiteSpace=wrap;html=1;fontFamily=Verdana;fontSize=15;strokeColor=#314354;fillColor=#647687;align=left;fontColor=#ffffff;" vertex="1" parent="1">
                    <mxGeometry x="1095" y="483" width="70" height="27" as="geometry"/>
                </mxCell>
                <mxCell id="63" value="方法信息" style="rounded=0;whiteSpace=wrap;html=1;fontFamily=Verdana;fontSize=15;strokeColor=#314354;fillColor=#647687;align=left;fontColor=#ffffff;" vertex="1" parent="1">
                    <mxGeometry x="1095" y="516.5" width="70" height="27" as="geometry"/>
                </mxCell>
                <mxCell id="64" value="属性信息" style="rounded=0;whiteSpace=wrap;html=1;fontFamily=Verdana;fontSize=15;strokeColor=#314354;fillColor=#647687;align=left;fontColor=#ffffff;" vertex="1" parent="1">
                    <mxGeometry x="995" y="483" width="70" height="27" as="geometry"/>
                </mxCell>
                <mxCell id="65" value="方法信息" style="rounded=0;whiteSpace=wrap;html=1;fontFamily=Verdana;fontSize=15;strokeColor=#314354;fillColor=#647687;align=left;fontColor=#ffffff;" vertex="1" parent="1">
                    <mxGeometry x="995" y="516.5" width="70" height="27" as="geometry"/>
                </mxCell>
            </root>
        </mxGraphModel>
    </diagram>
</mxfile>